<svg width="406" height="162" viewBox="0 0 406 162" fill="none" xmlns="http://www.w3.org/2000/svg">
<path d="M239.113 0H237.184V20.81H239.113V0Z" fill="#0B6FFF"/>
<path d="M243.49 0H242.748V20.81H243.49V0Z" fill="#0B6FFF"/>
<path d="M163.065 20.3511H162.323V41.1611H163.065V20.3511Z" fill="#0B6FFF"/>
<path d="M242.748 40.2148H240.038V61.0248H242.748V40.2148Z" fill="#0B6FFF"/>
<path d="M236.267 40.2148H233.557V61.0248H236.267V40.2148Z" fill="#0B6FFF"/>
<path d="M168.1 20.3511H164.749V41.1611H168.1V20.3511Z" fill="#0B6FFF"/>
<path d="M196.201 20.81H234.143V0H201.08C196.7 0 193.15 3.55 193.15 7.93V18.957C193.15 19.727 192.525 20.351 191.756 20.351H169.783V41.161H191.756C192.525 41.161 193.15 41.785 193.15 42.555V58.487C193.15 59.257 192.525 59.881 191.756 59.881H181.232C176.853 59.881 173.302 63.431 173.302 67.811V90.17C173.302 90.46 173.537 90.695 173.827 90.695H194.282C194.572 90.695 194.807 90.46 194.807 90.17V62.418C194.807 61.648 195.431 61.024 196.201 61.024H230.425V40.214H196.201C195.431 40.214 194.807 39.59 194.807 38.82V22.204C194.807 21.434 195.431 20.81 196.201 20.81Z" fill="#0B6FFF"/>
<path d="M0.687988 110.477V161.001H10.867V137.415H36.714V128.146H10.867V113.755C10.867 112.973 11.501 112.339 12.283 112.339H40.438V103.07H8.09499C4.00399 103.07 0.687988 106.386 0.687988 110.477Z" fill="#414042"/>
<path d="M55.078 127.153V117.305H45.064V161.001H55.078V144.367C55.078 132.781 61.202 127.07 69.974 127.07H70.554V116.477C62.857 116.146 57.809 120.615 55.078 127.153Z" fill="#414042"/>
<path d="M109.912 139.401C109.912 146.932 104.781 153.304 96.671 153.304C88.892 153.304 83.347 146.849 83.347 139.236V139.07C83.347 131.456 88.478 125.167 96.505 125.167C104.367 125.167 109.912 131.539 109.912 139.236V139.401ZM96.671 116.395C83.264 116.395 73.333 126.739 73.333 139.236V139.401C73.333 151.815 83.181 161.994 96.505 161.994C109.995 161.994 119.926 151.649 119.926 139.236V139.07C119.926 126.574 110.078 116.395 96.671 116.395Z" fill="#414042"/>
<path d="M138.949 105.304H128.935V117.304H123.39V125.911H128.935V148.918C128.935 158.517 134.149 161.745 141.514 161.745C145.238 161.745 148.052 160.917 150.535 159.511V151.317C148.549 152.311 146.563 152.807 144.328 152.807C140.935 152.807 138.949 151.235 138.949 147.345V125.911H150.701V117.304H138.949V105.304Z" fill="#414042"/>
<path d="M186.428 145.194C186.428 150.656 181.463 154.38 174.842 154.38C170.125 154.38 166.401 152.063 166.401 147.925V147.76C166.401 143.539 170.125 140.973 176.414 140.973C180.304 140.973 183.863 141.718 186.428 142.711V145.194ZM176.911 116.642C169.793 116.642 165.077 118.132 160.277 120.284L163.008 128.311C166.98 126.656 170.621 125.58 175.504 125.58C182.455 125.58 186.263 128.891 186.263 134.932V135.76C182.869 134.684 179.476 133.939 174.18 133.939C164.001 133.939 156.47 138.573 156.47 148.256V148.422C156.47 157.194 163.752 161.911 172.028 161.911C178.649 161.911 183.2 159.18 186.18 155.621V161.001H196.11V135.097C196.11 123.429 189.821 116.642 176.911 116.642Z" fill="#414042"/>
<path d="M232.285 152.642C221.196 152.642 213.168 143.373 213.168 132.035V131.87C213.168 120.532 221.196 111.428 232.285 111.428C238.906 111.428 243.872 114.325 248.506 118.629L255.044 111.098C249.499 105.801 243.044 102.077 232.368 102.077C214.823 102.077 202.492 115.566 202.492 132.035V132.201C202.492 148.835 215.072 161.994 231.954 161.994C242.795 161.994 249.416 158.021 255.457 151.732L248.92 145.111C243.954 149.746 239.402 152.642 232.285 152.642Z" fill="#414042"/>
<path d="M266.964 136.091C267.874 129.305 272.178 124.588 278.301 124.588C284.922 124.588 288.729 129.636 289.391 136.091H266.964ZM278.384 116.395C265.888 116.395 257.033 126.657 257.033 139.153V139.319C257.033 152.808 266.798 161.994 279.461 161.994C287.488 161.994 293.198 158.767 297.336 153.801L291.46 148.587C287.984 151.98 284.509 153.801 279.626 153.801C273.171 153.801 268.123 149.829 267.047 142.711H299.157C299.24 141.719 299.322 140.808 299.322 139.898C299.322 127.318 292.288 116.395 278.384 116.395Z" fill="#414042"/>
<path d="M348.636 105.304H338.622V117.304H330.867C323.17 116.973 318.122 120.614 315.391 127.152V117.304H305.377V161H315.391V144.366C315.391 132.78 321.515 125.96 330.287 125.96H338.622V148.918C338.622 158.517 343.836 161.745 351.201 161.745C354.925 161.745 357.739 160.917 360.222 159.511V151.317C358.235 152.311 356.25 152.807 354.015 152.807C350.622 152.807 348.636 151.235 348.636 147.345V125.96H360.388V117.304H348.636V105.304Z" fill="#414042"/>
<path d="M395.442 145.194C395.442 150.656 390.477 154.38 383.856 154.38C379.139 154.38 375.415 152.063 375.415 147.925V147.76C375.415 143.539 379.139 140.973 385.428 140.973C389.318 140.973 392.877 141.718 395.442 142.711V145.194ZM385.925 116.642C378.808 116.642 374.091 118.132 369.291 120.284L372.022 128.311C375.994 126.656 379.635 125.58 384.518 125.58C391.47 125.58 395.277 128.891 395.277 134.932V135.76C391.884 134.684 388.49 133.939 383.194 133.939C373.015 133.939 365.484 138.573 365.484 148.256V148.422C365.484 157.194 372.767 161.911 381.042 161.911C387.663 161.911 392.215 159.18 395.194 155.621V161.001H405.125V135.097C405.125 123.429 398.836 116.642 385.925 116.642Z" fill="#414042"/>
</svg>
