<svg width="141" height="158" viewBox="0 0 141 158" fill="none" xmlns="http://www.w3.org/2000/svg">
<path d="M133.097 0.217773H129.761V36.2138H133.097V0.217773Z" fill="#0B6FFF"/>
<path d="M140.665 0.217773H139.381V36.2138H140.665V0.217773Z" fill="#0B6FFF"/>
<path d="M1.55505 35.4199H0.270996V71.4159H1.55505V35.4199Z" fill="#0B6FFF"/>
<path d="M139.388 69.7778H134.701V105.774H139.388V69.7778Z" fill="#0B6FFF"/>
<path d="M128.178 69.7778H123.491V105.774H128.178V69.7778Z" fill="#0B6FFF"/>
<path d="M10.2579 35.4199H4.46094V71.4159H10.2579V35.4199Z" fill="#0B6FFF"/>
<path d="M58.8752 36.2138H124.504V0.217773H67.3142C59.7382 0.217773 53.5972 6.35878 53.5972 13.9348V33.0088C53.5972 34.3398 52.5172 35.4198 51.1862 35.4198H13.1792V71.4158H51.1862C52.5172 71.4158 53.5972 72.4958 53.5972 73.8268V101.385C53.5972 102.717 52.5172 103.796 51.1862 103.796H32.9832C25.4082 103.796 19.2662 109.938 19.2662 117.513V156.189C19.2662 156.69 19.6732 157.096 20.1742 157.096H55.5562C56.0572 157.096 56.4642 156.69 56.4642 156.189V108.185C56.4642 106.854 57.5432 105.774 58.8752 105.774H118.074V69.7778H58.8752C57.5432 69.7778 56.4642 68.6988 56.4642 67.3668V38.6248C56.4642 37.2928 57.5432 36.2138 58.8752 36.2138Z" fill="#0B6FFF"/>
</svg>
